<?xml version="1.0" standalone="no"?>
<svg xmlns="http://www.w3.org/2000/svg" viewBox="0 0 177.8 29" width="177.8" height="29"><path fill="#0466b2" fill-rule="nonzero" d="M0 9.14L0 0.29L1.80 0.29L1.80 9.67Q1.80 14.21 5.42 14.21L5.42 14.21Q9.02 14.21 9.02 9.67L9.02 9.67L9.02 0.29L10.85 0.29L10.85 9.14Q10.85 15.77 5.42 15.77L5.42 15.77Q0 15.77 0 9.14L0 9.14ZM21.12 5.33L20.59 6.22Q19.39 5.59 17.98 5.59L17.98 5.59Q17.02 5.59 16.48 6.01Q15.94 6.43 15.94 7.15L15.94 7.15Q15.94 7.92 16.43 8.34Q16.92 8.76 18.31 9.17L18.31 9.17Q20.28 9.77 21.05 10.51Q21.82 11.26 21.82 12.60L21.82 12.60Q21.82 14.02 20.75 14.89Q19.68 15.77 18 15.77L18 15.77Q15.79 15.77 14.16 14.57L14.16 14.57Q14.23 14.45 14.40 14.16L14.40 14.16Q14.57 13.85 14.69 13.68L14.69 13.68Q16.08 14.45 17.69 14.45L17.69 14.45Q20.21 14.45 20.21 12.55L20.21 12.55Q20.21 11.78 19.67 11.35Q19.13 10.92 17.66 10.54L17.66 10.54Q14.26 9.58 14.26 7.20L14.26 7.20Q14.26 5.93 15.25 5.11Q16.25 4.30 17.81 4.30L17.81 4.30Q19.66 4.30 21.12 5.33L21.12 5.33ZM33.46 10.06L33.46 10.58L25.68 10.58Q25.78 12.34 26.89 13.39Q28.01 14.45 29.78 14.45L29.78 14.45Q31.27 14.45 32.69 13.56L32.69 13.56L33.24 14.52Q31.66 15.77 29.42 15.77L29.42 15.77Q26.83 15.77 25.30 14.06L25.30 14.06Q23.88 12.53 23.88 10.08L23.88 10.08Q23.88 7.54 25.39 5.83L25.39 5.83Q26.76 4.30 28.78 4.30L28.78 4.30Q31.20 4.30 32.47 6.26L32.47 6.26Q33.46 7.80 33.46 10.06L33.46 10.06ZM25.66 9.29L25.66 9.29L31.80 9.29Q31.73 7.54 30.95 6.55Q30.17 5.57 28.80 5.57L28.80 5.57Q27.50 5.57 26.63 6.60Q25.75 7.63 25.66 9.29ZM35.62 5.88L35.62 4.58L37.18 4.58L37.18 3Q37.18 1.58 37.87 0.79Q38.57 0 39.84 0L39.84 0Q41.14 0 42.31 0.82L42.31 0.82L41.74 1.70Q40.94 1.30 40.18 1.30L40.18 1.30Q38.76 1.30 38.76 3.07L38.76 3.07L38.76 4.58L41.50 4.58L41.50 5.88L38.76 5.88L38.76 15.48L37.18 15.48L37.18 5.88L35.62 5.88ZM51.74 4.58L53.33 4.58L53.33 15.48L52.08 15.48L51.94 14.23L51.86 14.26Q50.40 15.77 48.31 15.77L48.31 15.77Q46.56 15.77 45.55 14.53Q44.54 13.30 44.54 11.11L44.54 11.11L44.54 4.58L46.15 4.58L46.15 10.82Q46.15 14.35 48.79 14.35L48.79 14.35Q49.61 14.35 50.44 13.94Q51.26 13.54 51.74 12.89L51.74 12.89L51.74 4.58ZM57.07 0.86L58.68 0L58.68 15.48L57.07 15.48L57.07 0.86ZM75.86 5.69L75.86 5.69L76.10 4.58L77.35 4.58L77.35 14.59Q77.35 20.06 72.58 20.06L72.58 20.06Q70.32 20.06 68.59 18.55L68.59 18.55L69.14 17.66Q70.63 18.70 72.31 18.70L72.31 18.70Q74.09 18.70 74.93 17.71Q75.77 16.73 75.77 14.59L75.77 14.59L75.77 14.38Q74.59 15.77 72.55 15.77L72.55 15.77Q70.18 15.77 68.78 13.99L68.78 13.99Q67.58 12.46 67.58 10.18L67.58 10.18Q67.58 7.30 69.26 5.66L69.26 5.66Q70.66 4.30 72.70 4.30L72.70 4.30Q73.61 4.30 74.51 4.69Q75.41 5.09 75.86 5.69ZM75.77 12.58L75.77 12.58L75.77 7.37Q75.46 6.62 74.64 6.11Q73.82 5.59 72.91 5.59L72.91 5.59Q71.33 5.59 70.32 6.83Q69.31 8.06 69.31 10.01L69.31 10.01Q69.31 12.22 70.42 13.44L70.42 13.44Q71.38 14.45 72.82 14.45L72.82 14.45Q73.78 14.45 74.58 13.93Q75.38 13.42 75.77 12.58ZM88.30 4.58L89.88 4.58L89.88 15.48L88.63 15.48L88.49 14.23L88.42 14.26Q86.95 15.77 84.86 15.77L84.86 15.77Q83.11 15.77 82.10 14.53Q81.10 13.30 81.10 11.11L81.10 11.11L81.10 4.58L82.70 4.58L82.70 10.82Q82.70 14.35 85.34 14.35L85.34 14.35Q86.16 14.35 86.99 13.94Q87.82 13.54 88.30 12.89L88.30 12.89L88.30 4.58ZM93.74 4.58L95.33 4.58L95.33 15.48L93.74 15.48L93.74 4.58ZM93.50 1.03L93.50 1.03Q93.50 0.62 93.82 0.31Q94.13 0 94.56 0L94.56 0Q94.99 0 95.30 0.31Q95.62 0.62 95.62 1.03L95.62 1.03Q95.62 1.49 95.30 1.79Q94.99 2.09 94.56 2.09L94.56 2.09Q94.10 2.09 93.80 1.79Q93.50 1.49 93.50 1.03ZM108.24 15.48L107.04 15.48L106.78 14.33Q105.62 15.77 103.44 15.77L103.44 15.77Q101.06 15.77 99.67 13.99L99.67 13.99Q98.47 12.46 98.47 10.18L98.47 10.18Q98.47 7.30 100.15 5.66L100.15 5.66Q101.54 4.30 103.58 4.30L103.58 4.30Q105.50 4.30 106.66 5.57L106.66 5.57L106.66 0.91L108.24 0.02L108.24 15.48ZM106.66 12.58L106.66 12.58L106.66 7.37Q106.34 6.62 105.53 6.11Q104.71 5.59 103.80 5.59L103.80 5.59Q102.22 5.59 101.21 6.83Q100.20 8.06 100.20 10.01L100.20 10.01Q100.20 12.22 101.30 13.44L101.30 13.44Q102.26 14.45 103.70 14.45L103.70 14.45Q104.66 14.45 105.47 13.93Q106.27 13.42 106.66 12.58ZM120.84 10.06L120.84 10.58L113.06 10.58Q113.16 12.34 114.28 13.39Q115.39 14.45 117.17 14.45L117.17 14.45Q118.66 14.45 120.07 13.56L120.07 13.56L120.62 14.52Q119.04 15.77 116.81 15.77L116.81 15.77Q114.22 15.77 112.68 14.06L112.68 14.06Q111.26 12.53 111.26 10.08L111.26 10.08Q111.26 7.54 112.78 5.83L112.78 5.83Q114.14 4.30 116.16 4.30L116.16 4.30Q118.58 4.30 119.86 6.26L119.86 6.26Q120.84 7.80 120.84 10.06L120.84 10.06ZM113.04 9.29L113.04 9.29L119.18 9.29Q119.11 7.54 118.33 6.55Q117.55 5.57 116.18 5.57L116.18 5.57Q114.89 5.57 114.01 6.60Q113.14 7.63 113.04 9.29ZM130.10 5.33L129.58 6.22Q128.38 5.59 126.96 5.59L126.96 5.59Q126.00 5.59 125.46 6.01Q124.92 6.43 124.92 7.15L124.92 7.15Q124.92 7.92 125.41 8.34Q125.90 8.76 127.30 9.17L127.30 9.17Q129.26 9.77 130.03 10.51Q130.80 11.26 130.80 12.60L130.80 12.60Q130.80 14.02 129.73 14.89Q128.66 15.77 126.98 15.77L126.98 15.77Q124.78 15.77 123.14 14.57L123.14 14.57Q123.22 14.45 123.38 14.16L123.38 14.16Q123.55 13.85 123.67 13.68L123.67 13.68Q125.06 14.45 126.67 14.45L126.67 14.45Q129.19 14.45 129.19 12.55L129.19 12.55Q129.19 11.78 128.65 11.35Q128.11 10.92 126.65 10.54L126.65 10.54Q123.24 9.58 123.24 7.20L123.24 7.20Q123.24 5.93 124.24 5.11Q125.23 4.30 126.79 4.30L126.79 4.30Q128.64 4.30 130.10 5.33L130.10 5.33Z" transform="translate(0, 4.468)"></path><line x1="139.8" y1="2%" x2="139.8" y2="98%" stroke="#0466b2" stroke-linecap="round"></line><g fill="#b19838" color="#b19838" transform="translate(148.8 0) scale(0.29)"><svg width="100.0" height="100.0" x="0.0" y="0.0" viewBox="0 0 100 100"><path d="M76,32v40v4H46v-4h16c2.2,0,4-1.8,4-4v-2v-2v-4v-8h1c0.6,0,1-0.4,1-1V41c0-0.6-0.4-1-1-1h-1V30h8C75.1,30,76,30.9,76,32z   M40,77c0-0.6,0.4-1,1-1h3v-4h-8v6c0,2.2,1.8,4,4,4h34c1.1,0,2-0.9,2-2v-2H41C40.4,78,40,77.6,40,77z M64,68v-2H29c-0.6,0-1-0.4-1-1  c0-0.6,0.4-1,1-1h3V18h-4c-2.2,0-4,1.8-4,4v44c0,2.2,1.8,4,4,4h34C63.1,70,64,69.1,64,68z M64,64H34V18h28c1.1,0,2,0.9,2,2v40V64z   M56,29c0-0.6-0.4-1-1-1H39c-0.6,0-1,0.4-1,1v10c0,0.6,0.4,1,1,1h16c0.6,0,1-0.4,1-1V29z"></path></svg></g></svg>